<svg width="26" height="25" viewBox="0 0 26 25" fill="none" xmlns="http://www.w3.org/2000/svg">
<path d="M18 8.75V7.5H16.75V5H15.5V2.5H14.25V0H11.75V2.5H10.5V5H9.25V7.5H8V8.75H0.5V11.25H1.75V12.5H3V13.75H4.25V15H5.5V20H4.25V22.5H3V25H6.75V23.75H9.25V22.5H10.5V21.25H15.5V22.5H16.75V23.75H19.25V25H23V22.5H21.75V20H20.5V15H21.75V13.75H23V12.5H24.25V11.25H25.5V8.75H18ZM18 12.5V13.75H16.75V16.25H18V18.75H15.5V17.5H10.5V18.75H8V16.25H9.25V13.75H8V12.5H6.75V11.25H10.5V10H11.75V7.5H14.25V10H15.5V11.25H19.25V12.5H18Z" fill="#FF8E00"/>
<path d="M18 12.5V13.75H16.75V16.25H18V18.75H15.5V17.5H10.5V18.75H8V16.25H9.25V13.75H8V12.5H6.75V11.25H10.5V10H11.75V7.5H14.25V10H15.5V11.25H19.25V12.5H18Z" fill="#FF8E00"/>
</svg>
