<svg width="18" height="18" viewBox="0 0 18 18" fill="none" xmlns="http://www.w3.org/2000/svg">
<g clip-path="url(#clip0_3032_2430)">
<path d="M17.25 8.25V9H15V16.5H14.25V17.25H11.25V12H6.75V17.25H3.75V16.5H3V9H0.75V8.25H1.5V7.5H2.25V6.75H3V6H3.75V5.25H4.5V4.5H5.25V3.75H6V3H6.75V2.25H7.5V1.5H8.25V0.75H9.75V1.5H10.5V2.25H11.25V3H12V3.75H12.75V4.5H13.5V5.25H14.25V6H15V6.75H15.75V7.5H16.5V8.25H17.25Z" fill="#15181B"/>
</g>
<defs>
<clipPath id="clip0_3032_2430">
<rect width="18" height="18" fill="white"/>
</clipPath>
</defs>
</svg>
